<svg xmlns="http://www.w3.org/2000/svg" viewBox="0 0 1226.89 234.66"><defs><style>.cls-1{fill:#f0801d;}.cls-2{fill:#103c63;}.cls-3{fill:#d25615;stroke:#d25617;}.cls-3,.cls-4,.cls-5,.cls-6{stroke-miterlimit:10;stroke-width:0.37px;}.cls-4{fill:#f08120;stroke:#f08120;}.cls-5{fill:#0e3d62;stroke:#0d3c61;}.cls-6{fill:#010101;stroke:#010101;}</style></defs><g id="Wortmarke"><path class="cls-1" d="M36.23,197.41v-9.18q17.24-3.39,17.23-7.67L54.72,50.77l18.36-3.14L71.7,180.56q0,1.5,4.15,3.71t13.2,4v9.18Zm104.39-33.2q1.75,3.9.31,10.63t-4.59,22.57H125L67.55,66.75a27.88,27.88,0,0,0-8.62-11.57A31.74,31.74,0,0,0,47.8,49.64a41.6,41.6,0,0,0-10.31-1.51V39H81a5.44,5.44,0,0,1,4.21,1.89q1.69,1.89,4.71,8.68ZM234.93,48.13q-5.66,0-14.27,2.83a72.36,72.36,0,0,0-16.22,7.67q-7.62,4.84-10.38,10.88l-57.22,127.9h-.5q-1.89-10.56-3.4-16.79a79.67,79.67,0,0,1-1.88-9.87,12.62,12.62,0,0,1,.75-6.29L183.37,49.52q3.27-7.43,4.91-9a5.61,5.61,0,0,1,4-1.57h42.63ZM172.68,197.41v-9.18a73.49,73.49,0,0,0,13.46-3.9q5-2.13,5-3.77L189.91,55.68l28.93-7.17,1.26,132.05c0,1,1.52,2.24,4.59,3.71s7.6,2.79,13.64,4v9.18Z" transform="translate(-36.23 -26.23)"/><path class="cls-2" d="M255.56,197.41v-9.18q17.22-3.53,17.23-7.67V55.93c0-1-1.37-2.26-4.09-3.77s-7.1-2.85-13.14-4V39h66v9.18q-17.35,3.66-17.35,7.8V180.56q0,1.5,4.15,3.71t13.2,4v9.18Z" transform="translate(-36.23 -26.23)"/><path class="cls-2" d="M433.89,91a13.21,13.21,0,0,0-5,6.16c-1,2.51-1.85,4.74-2.52,6.66s-1.76,2.9-3.27,2.9-3.48-1.15-6.16-3.46a77,77,0,0,0-9.62-6.92,23.36,23.36,0,0,0-12.51-3.46,24,24,0,0,0-15.79,6,55.77,55.77,0,0,0-12.32,15,85.47,85.47,0,0,0-8.05,18.73,61.88,61.88,0,0,0-2.83,17.11q0,16.22,5.16,25.9t12.7,9.69q3.14,0,7.73-4.22a84.79,84.79,0,0,0,9.75-10.94,153.22,153.22,0,0,0,9.93-14.71,168.6,168.6,0,0,0,8.3-15.53l-3.27,22.38Q403,168,398.23,174.9a129.38,129.38,0,0,1-10.31,13.2,66.23,66.23,0,0,1-11.44,10.38q-5.85,4.08-11.13,4.09-5.53,0-11.76-4.34T343,184.33q-4.4-9.56-4.4-25.28a79.72,79.72,0,0,1,9.31-37.6,82.75,82.75,0,0,1,27-29.93,79.39,79.39,0,0,1,15.9-8.24A46.23,46.23,0,0,1,407.6,79.7a21.54,21.54,0,0,1,10.5,2.64A90.65,90.65,0,0,1,427,87.81,16.48,16.48,0,0,0,433.89,91Zm11.31,97.84a158,158,0,0,1-17.6,10.44q-6.8,3.27-10.44,3.27-3,0-5.66-3.15t-4.27-11.88q-1.65-8.74-1.64-25.47a94.66,94.66,0,0,1,1.26-12.13q1.26-8.49,2.95-18.55t3.27-18.62q1.57-8.55,2.2-12.2,1.26-5.77,8.3-11.31A82.34,82.34,0,0,1,439,79.7l2.52,4.4a27,27,0,0,0-6,6.35q-1.69,2.83-3.45,11.38-2.52,12-4.59,24.59t-3.27,22.38a131.46,131.46,0,0,0-1.2,13.52q0,14.34,1.64,19.94t4.52,5.59a28.85,28.85,0,0,0,6-.75,57.19,57.19,0,0,0,8.49-2.77Z" transform="translate(-36.23 -26.23)"/><path class="cls-2" d="M533.36,139.69,531,159.05q-10.31,19-23,31.25t-26.47,12.27c-2.18,0-4.74-1.16-7.67-3.46s-5.47-5.77-7.61-10.38-3.21-10.31-3.21-17.1a113.61,113.61,0,0,1,1.39-15.34q1.38-9.69,3.27-20.5T471,115.73a103.18,103.18,0,0,0,1.38-13.9q0-5.77-1.45-7.1a5.28,5.28,0,0,0-3.71-1.32,27.54,27.54,0,0,0-5.66,1q-4,1-7.29,2l-1.51-4.65q10.69-4.77,20.5-8.42T486.2,79.7q3.65,0,4.91,2.39c.83,1.59,1.25,4.32,1.25,8.17a113.49,113.49,0,0,1-1.5,15.6q-1.51,10-3.53,21.5t-3.52,21.51a113.56,113.56,0,0,0-1.51,15.59q0,12,2.58,17.42t7.23,5.47q5.16,0,16.48-10.69T533.36,139.69Zm37.1,49.17q-20.37,13.71-29.17,13.71c-2.27,0-4.45-1.58-6.54-4.72s-3.57-8.38-4.41-15.72-.58-17.25.76-29.74A271.58,271.58,0,0,1,535.37,125q2.89-13.95,2.9-23.14,0-5.77-1.26-7.1a4.47,4.47,0,0,0-3.4-1.32,22.67,22.67,0,0,0-5.28,1q-3.65,1-6.54,2l-1.88-4.65q10.68-4.77,20-8.42t12.45-3.65q3.52,0,4.66,2.39c.75,1.59,1.13,4.32,1.13,8.17a107,107,0,0,1-1.58,15.53q-1.56,10-3.58,21.45T549.4,149a115.19,115.19,0,0,0-1.58,16.48q0,22.38,6.42,22.38,6,0,14.46-3.52Z" transform="translate(-36.23 -26.23)"/><path class="cls-2" d="M602.31,198.91a16,16,0,0,1-12.13-5.13,17.06,17.06,0,0,1,0-23.87,16.94,16.94,0,0,1,28.88,12,16.49,16.49,0,0,1-5,11.87A15.9,15.9,0,0,1,602.31,198.91Z" transform="translate(-36.23 -26.23)"/><path class="cls-2" d="M707,197.41V188.5a77.14,77.14,0,0,0,12.45-4.09q3.66-1.77,3.66-3.36V125.63q0-13.42-2.81-18.31t-10-4.88q-5.85,0-13.49,3.48t-19.47,13.49v61.64q0,4,16.24,7.45v8.91H631.91V188.5Q648,184.23,648,181.05V113.3a43.61,43.61,0,0,0-.73-9.34,5.94,5.94,0,0,0-4.09-4.21,57.81,57.81,0,0,0-11.3-2.19V89a171.92,171.92,0,0,0,20.57-3.29,135.54,135.54,0,0,0,17.89-5.5l5.12,5.13,1.35,17.58Q691,90.84,703.45,85.53t22-5.31a28,28,0,0,1,18.74,7.08q8.24,7.08,8.24,24.17v69.58q0,1.59,3.29,3.3t12.94,4.15v8.91Z" transform="translate(-36.23 -26.23)"/><path class="cls-2" d="M878.13,85.59q1.1.73.61,5.86a116.07,116.07,0,0,1-2,12.15q-1.47,7-3.3,13.43a79.94,79.94,0,0,1-3.29,9.7h-8.92A47.92,47.92,0,0,0,857,109.82q-3.42-7-9.28-7a18.28,18.28,0,0,0-7.2,1.78q-4,1.77-8.54,7.14t-9.4,16v53.34c0,1.22,1.69,2.49,5.06,3.79s8.89,2.52,16.54,3.66v8.91h-67V188.5q16.11-3.66,16.11-7.45v-64.7q0-8.05-.85-11.23a9.86,9.86,0,0,0-2-4.27,9,9,0,0,0-4.09-2.26,53.31,53.31,0,0,0-9.21-1V89q8.91-1.22,15-2.38t11.35-2.69q5.31-1.51,12.15-3.72l5.13,5.13,1.58,17.7a64.51,64.51,0,0,1,16.3-16.11,35,35,0,0,1,20.2-6.72A38,38,0,0,1,878.13,85.59Z" transform="translate(-36.23 -26.23)"/><path class="cls-2" d="M947.22,190.21a11.11,11.11,0,0,1-4.51,6,26.28,26.28,0,0,1-6.9,3.29q-3.6,1.11-5.8,1.59L897.17,100.36q-1.59-4.87-13.3-7.56V83.88h55.3V92.8Q928.67,94,926.77,96a4,4,0,0,0-1,4.33L944.05,158l29.17-74.1h8.55L982.5,104ZM1059.89,92.8Q1053,94.51,1050.8,96a7.71,7.71,0,0,0-3.11,4.33l-27,89.85a10,10,0,0,1-4.46,5.8,28.89,28.89,0,0,1-7.26,3.41c-2.52.78-4.48,1.33-5.86,1.65L968.46,121.6,974,83.88h8.66l30.64,74.1,17.58-57.62a4.42,4.42,0,0,0-.67-4.51q-1.53-1.71-10-3V83.88h39.67Z" transform="translate(-36.23 -26.23)"/></g><g id="Untertitel"><path class="cls-2" d="M382.42,251.12v-.87a11.21,11.21,0,0,0,2.17-.63c.52-.23.78-.44.78-.61l.21-22.23,2.36-.51L387.71,249q0,.24.75.6a10,10,0,0,0,2.2.64v.87ZM398,245.75a5.1,5.1,0,0,1,.36,1.72,16.63,16.63,0,0,1-.44,3.65H397l-9.3-21.59a4.54,4.54,0,0,0-1.43-1.92,5.88,5.88,0,0,0-1.87-1,6.19,6.19,0,0,0-1.72-.28v-.88h5.82a.68.68,0,0,1,.61.31,13.72,13.72,0,0,1,.69,1.4Zm14.79-19.39a6,6,0,0,0-2.12.46,10.75,10.75,0,0,0-2.21,1.16,3.57,3.57,0,0,0-1.3,1.41L398,251.12h-.08c-.2-1.14-.33-2-.39-2.71a8.4,8.4,0,0,1,0-1.6,3.88,3.88,0,0,1,.27-1l7.87-18.6a10.79,10.79,0,0,1,.72-1.47.71.71,0,0,1,.58-.24h5.82Zm-8.85,24.76v-.87a14.47,14.47,0,0,0,2.27-.63c.59-.23.89-.44.89-.61l-.21-21.43,3.16-1.16.2,22.59c0,.16.25.36.74.6a10.25,10.25,0,0,0,2.21.64v.87Z" transform="translate(-36.23 -26.23)"/><path class="cls-2" d="M434.13,241.25a10.41,10.41,0,0,1-.74,3.91,11.66,11.66,0,0,1-2,3.36,10,10,0,0,1-2.95,2.35,7.67,7.67,0,0,1-3.53.86,7.88,7.88,0,0,1-4.46-1.26,8.33,8.33,0,0,1-2.95-3.44,11.23,11.23,0,0,1-1.05-4.94,10.79,10.79,0,0,1,.72-3.9,11.68,11.68,0,0,1,2-3.38,9.71,9.71,0,0,1,3-2.36,7.67,7.67,0,0,1,3.59-.86,7.83,7.83,0,0,1,4.45,1.26,8.34,8.34,0,0,1,2.95,3.44A11.4,11.4,0,0,1,434.13,241.25Zm-3.15.61a9,9,0,0,0-.89-4,8.73,8.73,0,0,0-2.23-2.94,4.38,4.38,0,0,0-2.76-1.12,4.92,4.92,0,0,0-3.27,1,5.61,5.61,0,0,0-1.73,2.75,13.76,13.76,0,0,0-.52,3.91,8.44,8.44,0,0,0,.95,3.95,8.84,8.84,0,0,0,2.32,2.93,4.24,4.24,0,0,0,2.61,1.11,4.62,4.62,0,0,0,4.21-2.07A10.37,10.37,0,0,0,431,241.86Z" transform="translate(-36.23 -26.23)"/><path class="cls-2" d="M455.09,241.25a10.41,10.41,0,0,1-.74,3.91,11.66,11.66,0,0,1-2,3.36,10,10,0,0,1-2.95,2.35,7.66,7.66,0,0,1-3.52.86,7.91,7.91,0,0,1-4.47-1.26,8.4,8.4,0,0,1-2.95-3.44,11.23,11.23,0,0,1-1.05-4.94,10.79,10.79,0,0,1,.72-3.9,11.49,11.49,0,0,1,2-3.38,9.55,9.55,0,0,1,2.95-2.36,7.67,7.67,0,0,1,3.59-.86,7.88,7.88,0,0,1,4.46,1.26,8.39,8.39,0,0,1,2.94,3.44A11.26,11.26,0,0,1,455.09,241.25Zm-3.15.61a9,9,0,0,0-.88-4,8.76,8.76,0,0,0-2.24-2.94,4.36,4.36,0,0,0-2.76-1.12,4.92,4.92,0,0,0-3.27,1,5.69,5.69,0,0,0-1.73,2.75,13.76,13.76,0,0,0-.52,3.91,8.44,8.44,0,0,0,.95,3.95,8.84,8.84,0,0,0,2.32,2.93,4.26,4.26,0,0,0,2.62,1.11,4.61,4.61,0,0,0,4.2-2.07A10.37,10.37,0,0,0,451.94,241.86Z" transform="translate(-36.23 -26.23)"/><path class="cls-2" d="M473.39,245.83c-.91,1.19-1.77,2.23-2.59,3.12a10.57,10.57,0,0,1-2.57,2.05,6.19,6.19,0,0,1-3,.73,5.23,5.23,0,0,1-3.09-1.15,8.82,8.82,0,0,1-2.67-3.31,11.54,11.54,0,0,1-1.08-5.18,10.24,10.24,0,0,1,.69-3.6,11.91,11.91,0,0,1,2-3.4,10.27,10.27,0,0,1,3-2.54,8,8,0,0,1,3.89-1,7.66,7.66,0,0,1,2.46.42,8.12,8.12,0,0,1,2.83,2,3.37,3.37,0,0,1-.28,1.66,2.83,2.83,0,0,1-.92.84,4.53,4.53,0,0,0-1.91-2,5.57,5.57,0,0,0-2.81-.72,5.39,5.39,0,0,0-4.25,1.91c-1.1,1.27-1.66,3.17-1.66,5.73a9.08,9.08,0,0,0,.85,4,7.57,7.57,0,0,0,2.05,2.66,3.86,3.86,0,0,0,2.33,1,4,4,0,0,0,2.09-.62,12.43,12.43,0,0,0,2-1.55l1.94-1.84a1.56,1.56,0,0,1,.47.35A2.12,2.12,0,0,1,473.39,245.83Zm4.72,3.58c-1.25.83-2.22,1.42-2.91,1.78a3.88,3.88,0,0,1-1.61.54c-.54,0-1-.45-1.26-1.37a17.36,17.36,0,0,1-.45-4.77v-20.4a11.71,11.71,0,0,0-.14-2.2,1.18,1.18,0,0,0-.75-1,7.41,7.41,0,0,0-2.06-.34v-.8a21.31,21.31,0,0,0,3-.6c.89-.25,1.68-.49,2.39-.72l.63.61V246a11.54,11.54,0,0,0,.13,2.08,2.42,2.42,0,0,0,.34.93c.1.15.33.2.69.14a11.34,11.34,0,0,0,1.75-.56Z" transform="translate(-36.23 -26.23)"/><path class="cls-2" d="M479.62,251.12v-.87a11.68,11.68,0,0,0,2.4-.61c.43-.21.65-.42.65-.63V224.75a4.66,4.66,0,0,0-.23-1.72,1.26,1.26,0,0,0-.86-.7,9.51,9.51,0,0,0-1.76-.31v-.81q1.47-.28,2.7-.63a13.76,13.76,0,0,0,2.47-1l.73.69V249c0,.2.23.41.7.63a10.36,10.36,0,0,0,2.36.61v.87Z" transform="translate(-36.23 -26.23)"/><path class="cls-2" d="M507.32,239.79a3.94,3.94,0,0,1-1,.75,12.17,12.17,0,0,1-1.26.61H493.4l0-1.83h9.76a1,1,0,0,0,.63-.15.86.86,0,0,0,.15-.58,7.24,7.24,0,0,0-.17-1.37,5.33,5.33,0,0,0-.6-1.62,3.69,3.69,0,0,0-1.27-1.34,3.87,3.87,0,0,0-2.15-.54,4.46,4.46,0,0,0-2.85,1,6.19,6.19,0,0,0-1.9,2.59,10,10,0,0,0-.67,3.74,10.86,10.86,0,0,0,.72,4,7.35,7.35,0,0,0,2.08,3,4.89,4.89,0,0,0,3.23,1.13,7.45,7.45,0,0,0,1.65-.18,6.7,6.7,0,0,0,1.85-.76,18.34,18.34,0,0,0,2.54-1.83,1.39,1.39,0,0,1,.47.41,3,3,0,0,1,.28.42,25.89,25.89,0,0,1-3.09,3,7.37,7.37,0,0,1-2.41,1.3,9.45,9.45,0,0,1-2.54.31,6.92,6.92,0,0,1-3.86-1.17,8.32,8.32,0,0,1-2.88-3.28,10.74,10.74,0,0,1-1.09-5,11.83,11.83,0,0,1,1.19-5.2,9.86,9.86,0,0,1,3.31-3.9,10,10,0,0,1,2.17-1.12,6.85,6.85,0,0,1,2.37-.48,6.54,6.54,0,0,1,3.33.78,6.2,6.2,0,0,1,2.14,2,8.76,8.76,0,0,1,1.14,2.67A11.62,11.62,0,0,1,507.32,239.79Z" transform="translate(-36.23 -26.23)"/><path class="cls-2" d="M545.51,235.9a7.84,7.84,0,0,1-1,1c-.34.28-.67.53-1,.76a10.59,10.59,0,0,0-3.5-.83,3.81,3.81,0,0,1,.56,1.35,12.06,12.06,0,0,1,.11,1.84,8.88,8.88,0,0,1-1,3.79,14.72,14.72,0,0,1-2.65,3.81,14,14,0,0,1-3.95,2.93,10.58,10.58,0,0,1-4.85,1.13,9.23,9.23,0,0,1-6.15-2,7.14,7.14,0,0,1-2.36-5.79,8.94,8.94,0,0,1,2.26-5.57,21.27,21.27,0,0,1,6.35-5.1,9.36,9.36,0,0,0,3.72-3.12,5.78,5.78,0,0,0,.88-2.88,4.27,4.27,0,0,0-.71-2.46,2.46,2.46,0,0,0-2.16-1,2.26,2.26,0,0,0-1.63.64,4.09,4.09,0,0,0-1,1.63,6.79,6.79,0,0,0-.32,2.07,11.38,11.38,0,0,0,.91,4.24,26.79,26.79,0,0,0,2.44,4.61,47.85,47.85,0,0,0,3.33,4.53c1.22,1.46,2.43,2.79,3.66,4s2.33,2.21,3.33,3a3.91,3.91,0,0,0,1.67.85,4.63,4.63,0,0,0,2.08-.06l.18.88a29.78,29.78,0,0,1-3,1.15,6.89,6.89,0,0,1-1.67.37,4.19,4.19,0,0,1-1.81-1,34.17,34.17,0,0,1-3.08-2.75,52.52,52.52,0,0,1-3.62-4,49.17,49.17,0,0,1-3.45-4.77,30,30,0,0,1-2.59-5.07,13.45,13.45,0,0,1-1-4.86,8.15,8.15,0,0,1,.94-3.93,7.55,7.55,0,0,1,2.44-2.74,5.72,5.72,0,0,1,3.22-1,4.68,4.68,0,0,1,2.73.71,3.81,3.81,0,0,1,1.45,1.84,6.84,6.84,0,0,1,.44,2.46,6.77,6.77,0,0,1-1.34,4A13,13,0,0,1,530.7,234a29.1,29.1,0,0,0-4.62,3.43,10.3,10.3,0,0,0-2.35,3.05,7.11,7.11,0,0,0-.68,3.06,5.85,5.85,0,0,0,.83,3.21,5.53,5.53,0,0,0,2.17,2,6,6,0,0,0,2.82.68,8.76,8.76,0,0,0,3.88-.83,10,10,0,0,0,3-2.14,9.81,9.81,0,0,0,1.86-2.78,7,7,0,0,0,.64-2.75,4.49,4.49,0,0,0-.48-2.08,4.36,4.36,0,0,0-1.23-1.5,2.59,2.59,0,0,0-1.55-.56l-.45-.57a3.82,3.82,0,0,1,.67-.57,3.2,3.2,0,0,1,.84-.46h9Z" transform="translate(-36.23 -26.23)"/><path class="cls-2" d="M556.52,251.12v-.87a11,11,0,0,0,2.17-.63c.52-.23.78-.44.78-.61V227.62c0-.17-.24-.37-.74-.61a8.87,8.87,0,0,0-2.21-.65v-.88h9.16v.88a11.16,11.16,0,0,0-2.15.63c-.53.23-.8.44-.8.63V249c0,.16.25.36.74.6a10.25,10.25,0,0,0,2.21.64v.87Z" transform="translate(-36.23 -26.23)"/><path class="cls-2" d="M586.73,246.16a29.71,29.71,0,0,1-.41,3.06c-.18.87-.32,1.51-.43,1.9H568.53v-.87a11.21,11.21,0,0,0,2.17-.63c.52-.23.78-.44.78-.61V227.62c0-.17-.25-.37-.74-.61a9,9,0,0,0-2.21-.65v-.88h9.16v.88a11.52,11.52,0,0,0-2.16.63c-.53.23-.79.44-.79.63v20.16a1.21,1.21,0,0,0,.78,1.11,7.42,7.42,0,0,0,3,.4h2.91a7.8,7.8,0,0,0,2-.21,2.43,2.43,0,0,0,1.29-1,9.6,9.6,0,0,0,1.11-2.33Z" transform="translate(-36.23 -26.23)"/><path class="cls-2" d="M588.78,251.12v-.87a11.21,11.21,0,0,0,2.17-.63c.52-.23.78-.44.78-.61V227.62c0-.17-.25-.37-.74-.61a9,9,0,0,0-2.21-.65v-.88h9.16v.88a11.52,11.52,0,0,0-2.16.63c-.53.23-.79.44-.79.63V249c0,.16.25.36.74.6a10.08,10.08,0,0,0,2.21.64v.87Z" transform="translate(-36.23 -26.23)"/><path class="cls-2" d="M607.52,242.07l-2.26,6.79c-.13.42,0,.73.55.92a11.35,11.35,0,0,0,2.43.47v.87h-8.47v-.87a19.53,19.53,0,0,0,2.2-.51,1.46,1.46,0,0,0,1-.88L610.56,226a5,5,0,0,1,1.16-.93c.46-.28.86-.51,1.22-.7l8.54,24.54a1.68,1.68,0,0,0,.79.9,5.35,5.35,0,0,0,1.88.49v.87h-8.59v-.87a6.51,6.51,0,0,0,2.19-.41.72.72,0,0,0,.4-1l-2.32-6.79Zm7.68-1.84-3.59-10.46-3.48,10.46Z" transform="translate(-36.23 -26.23)"/><path class="cls-2" d="M639.74,229.45l-.73-.12a6.31,6.31,0,0,0-2.44-1.88,6.8,6.8,0,0,0-2.49-.53,4.8,4.8,0,0,0-2.45.57,3.69,3.69,0,0,0-1.38,1.4,3.31,3.31,0,0,0-.44,1.6,3,3,0,0,0,.92,2.19,9.58,9.58,0,0,0,2.39,1.67c1,.51,2,1,3.08,1.53a23.91,23.91,0,0,1,3.08,1.77,8.59,8.59,0,0,1,2.38,2.39,6,6,0,0,1,.93,3.41,7.79,7.79,0,0,1-.55,2.81,8.46,8.46,0,0,1-4.51,4.7,9.49,9.49,0,0,1-4,.77,10.69,10.69,0,0,1-3.09-.54,13.31,13.31,0,0,1-3.2-1.45c-.09-.06-.16-.28-.21-.68a12,12,0,0,1-.07-1.45c0-.56,0-1.12.07-1.69a9.4,9.4,0,0,1,.21-1.39l.84.1a7,7,0,0,0,2.73,3.53,7.12,7.12,0,0,0,3.86,1.13,5,5,0,0,0,2.41-.65,5.72,5.72,0,0,0,2-1.74,4,4,0,0,0,.78-2.37,4.12,4.12,0,0,0-.91-2.74,8.08,8.08,0,0,0-2.36-1.86c-1-.52-2-1-3.07-1.48a24.43,24.43,0,0,1-3.06-1.57,7.94,7.94,0,0,1-2.36-2.17,5.52,5.52,0,0,1-.92-3.27,5.85,5.85,0,0,1,.44-2.08A6.73,6.73,0,0,1,629,227.2a7.09,7.09,0,0,1,2.51-1.68,9.81,9.81,0,0,1,3.78-.65,12.1,12.1,0,0,1,3.57.53,5.62,5.62,0,0,1,2.48,1.34c.13.11.11.34-.07.7a7.34,7.34,0,0,1-.73,1.12A5.75,5.75,0,0,1,639.74,229.45Z" transform="translate(-36.23 -26.23)"/><path class="cls-2" d="M666.48,241.19a35.84,35.84,0,0,0-3.64.73,8.68,8.68,0,0,0-2,.77,4.52,4.52,0,0,0-2,2.11,3.87,3.87,0,0,0-.34,1.66,2.91,2.91,0,0,0,.4,1.65,1.94,1.94,0,0,0,.93.77,2.46,2.46,0,0,0,.87.21,6.45,6.45,0,0,0,2.69-.67,13.21,13.21,0,0,0,3-2.1l.16,1.5a13.22,13.22,0,0,1-3.8,3,7.81,7.81,0,0,1-3.28.92,4.72,4.72,0,0,1-2-.44,3.92,3.92,0,0,1-1.68-1.41,4.31,4.31,0,0,1-.68-2.54,5.57,5.57,0,0,1,.54-2.6,7.13,7.13,0,0,1,1.29-1.78,8.21,8.21,0,0,1,1.63-1.24,11.72,11.72,0,0,1,2.77-1.08,44.23,44.23,0,0,1,5-1Zm6,8.26a22.11,22.11,0,0,1-2.86,1.73,4.35,4.35,0,0,1-1.7.55c-.47,0-.86-.35-1.16-1.07a7.78,7.78,0,0,1-.44-2.88V236.84a3.72,3.72,0,0,0-.72-2.33,3,3,0,0,0-2.7-.89,4.12,4.12,0,0,0-2.37.78,2.07,2.07,0,0,0-1,2c0,.16-.2.34-.69.55a10.43,10.43,0,0,1-1.58.5,3.08,3.08,0,0,1-1.19.11l-.28-.8a7.28,7.28,0,0,1,2.07-2.53,12.74,12.74,0,0,1,3.27-1.9,9.38,9.38,0,0,1,3.53-.73,4.77,4.77,0,0,1,3.45,1.17,4.3,4.3,0,0,1,1.21,3.26V247.5q0,1.59.81,1.59a3.48,3.48,0,0,0,.74-.11c.29-.08.72-.23,1.26-.44Z" transform="translate(-36.23 -26.23)"/><path class="cls-2" d="M689.4,245.83c-.91,1.19-1.78,2.23-2.6,3.12a10.53,10.53,0,0,1-2.56,2.05,6.23,6.23,0,0,1-3,.73,5.28,5.28,0,0,1-3.09-1.15,8.82,8.82,0,0,1-2.67-3.31,11.68,11.68,0,0,1-1.07-5.18,10.24,10.24,0,0,1,.69-3.6,12.11,12.11,0,0,1,2-3.4,10.53,10.53,0,0,1,3-2.54,8,8,0,0,1,3.89-1,7.57,7.57,0,0,1,2.46.42,8.12,8.12,0,0,1,2.83,2,3.52,3.52,0,0,1-.27,1.66,2.87,2.87,0,0,1-.93.84,4.51,4.51,0,0,0-1.9-2,5.64,5.64,0,0,0-2.82-.72,5.37,5.37,0,0,0-4.24,1.91c-1.11,1.27-1.66,3.17-1.66,5.73a9.08,9.08,0,0,0,.84,4,7.59,7.59,0,0,0,2.06,2.66,3.84,3.84,0,0,0,2.33,1,3.93,3.93,0,0,0,2.08-.62,12.06,12.06,0,0,0,2-1.55l1.93-1.84a1.45,1.45,0,0,1,.47.35A2.26,2.26,0,0,1,689.4,245.83Zm4.72,3.58c-1.25.83-2.22,1.42-2.91,1.78a3.88,3.88,0,0,1-1.61.54c-.54,0-1-.45-1.26-1.37a17.36,17.36,0,0,1-.45-4.77v-20.4a12.65,12.65,0,0,0-.14-2.2,1.21,1.21,0,0,0-.76-1,7.32,7.32,0,0,0-2-.34v-.8a21.61,21.61,0,0,0,3-.6c.88-.25,1.68-.49,2.38-.72l.63.61V246a12.56,12.56,0,0,0,.13,2.08,2.42,2.42,0,0,0,.34.93c.11.15.34.2.69.14a10.69,10.69,0,0,0,1.75-.56Z" transform="translate(-36.23 -26.23)"/><path class="cls-2" d="M707.28,241.19a35.84,35.84,0,0,0-3.64.73,8.38,8.38,0,0,0-2,.77,5.09,5.09,0,0,0-1.12.86,5.41,5.41,0,0,0-.85,1.25,3.87,3.87,0,0,0-.33,1.66,2.92,2.92,0,0,0,.39,1.65,2,2,0,0,0,.93.77,2.5,2.5,0,0,0,.88.21,6.41,6.41,0,0,0,2.68-.67,13.21,13.21,0,0,0,3-2.1l.17,1.5a13.39,13.39,0,0,1-3.81,3,7.77,7.77,0,0,1-3.27.92,4.77,4.77,0,0,1-2-.44,4,4,0,0,1-1.68-1.41,4.38,4.38,0,0,1-.68-2.54,5.57,5.57,0,0,1,.54-2.6,7.39,7.39,0,0,1,1.29-1.78,8.21,8.21,0,0,1,1.63-1.24,11.83,11.83,0,0,1,2.78-1.08,43.53,43.53,0,0,1,5-1Zm6,8.26a23.55,23.55,0,0,1-2.86,1.73,4.39,4.39,0,0,1-1.7.55c-.48,0-.86-.35-1.16-1.07a7.55,7.55,0,0,1-.45-2.88V236.84a3.78,3.78,0,0,0-.71-2.33,3.08,3.08,0,0,0-2.71-.89,4.12,4.12,0,0,0-2.37.78,2.07,2.07,0,0,0-.95,2c0,.16-.2.34-.69.55a10.08,10.08,0,0,1-1.58.5,3,3,0,0,1-1.18.11l-.29-.8a7.21,7.21,0,0,1,2.08-2.53,12.68,12.68,0,0,1,3.26-1.9,9.42,9.42,0,0,1,3.53-.73,4.74,4.74,0,0,1,3.45,1.17,4.3,4.3,0,0,1,1.21,3.26V247.5c0,1.06.27,1.59.82,1.59a3.4,3.4,0,0,0,.73-.11,13.31,13.31,0,0,0,1.26-.44Z" transform="translate(-36.23 -26.23)"/><path class="cls-2" d="M726.21,251.73a6.61,6.61,0,0,1-2.7-.68,12.23,12.23,0,0,1-3-1.92v9.62c0,.22.26.44.77.65A12,12,0,0,0,724,260v.87h-9.34V260a18.59,18.59,0,0,0,2.1-.62c.5-.2.75-.42.75-.65v-22.1a5.61,5.61,0,0,0-.17-1.56,1.21,1.21,0,0,0-.78-.78,6.75,6.75,0,0,0-1.9-.28v-.82a24.48,24.48,0,0,0,2.55-.68,20.41,20.41,0,0,0,2.34-.94l.71.71.18,4a15.79,15.79,0,0,1,4-3.6,6.92,6.92,0,0,1,3.13-1.14,5.44,5.44,0,0,1,4.6,2.53,11.82,11.82,0,0,1,1.81,7,10.8,10.8,0,0,1-.65,3.63,14,14,0,0,1-1.75,3.45,10.18,10.18,0,0,1-2.49,2.57A5,5,0,0,1,726.21,251.73Zm0-17.6a5.29,5.29,0,0,0-2.3,1,12.63,12.63,0,0,0-3.36,3.6v8.08a12,12,0,0,0,3.17,1.83,7.63,7.63,0,0,0,2.45.47,4.58,4.58,0,0,0,3.62-1.69,7.4,7.4,0,0,0,1.45-5,11.86,11.86,0,0,0-.72-4.26,7.74,7.74,0,0,0-1.85-3A3.5,3.5,0,0,0,726.21,234.13Z" transform="translate(-36.23 -26.23)"/><path class="cls-2" d="M749.37,248.74a17.68,17.68,0,0,1-3.84,2.24,8.3,8.3,0,0,1-2.92.75,3.3,3.3,0,0,1-2.47-1.14c-.71-.76-1.07-2.08-1.07-4V234.13h-2.62l-.43-.57,1.59-1.36h1.46v-5l2.42-2.12.64.51v6.62h6.65l.59.59a10,10,0,0,1-1,1.22,3.73,3.73,0,0,1-1,.83,7.53,7.53,0,0,0-1.48-.48,12.5,12.5,0,0,0-2.65-.23h-1v10.74a7.82,7.82,0,0,0,.48,3.33,1.8,1.8,0,0,0,1.71.89,7.22,7.22,0,0,0,1.79-.29,13.52,13.52,0,0,0,2.67-1.1Z" transform="translate(-36.23 -26.23)"/><path class="cls-2" d="M751.38,251.12v-.87c1.9-.38,2.85-.8,2.85-1.24V237.49a13.38,13.38,0,0,0-.12-2.1,1.25,1.25,0,0,0-.71-1,6.69,6.69,0,0,0-2-.39v-.82a25.86,25.86,0,0,0,2.73-.68,17.1,17.1,0,0,0,2.48-.94h.7V249c0,.16.22.36.68.6a8.71,8.71,0,0,0,2.17.64v.87Zm6.52-25.66a3,3,0,0,1-.67,2,2.11,2.11,0,0,1-1.69.83c-1.14,0-1.71-.65-1.71-2a2.91,2.91,0,0,1,.69-2,2.09,2.09,0,0,1,1.65-.8C757.32,223.53,757.9,224.17,757.9,225.46Z" transform="translate(-36.23 -26.23)"/><path class="cls-2" d="M781.38,233.07a6.1,6.1,0,0,0-1.62.54,1.67,1.67,0,0,0-.62.85l-5.76,15.46a2.1,2.1,0,0,1-1.27,1.3,10.07,10.07,0,0,1-1.47.51l-6.72-17.27c-.26-.64-1-1.1-2.26-1.39v-.87h7.86v.87a7.16,7.16,0,0,0-2.07.47c-.33.18-.41.48-.23.92l5,13,4.71-13c.14-.41.08-.71-.2-.89a5.86,5.86,0,0,0-1.92-.5v-.87h6.57Z" transform="translate(-36.23 -26.23)"/><path class="cls-2" d="M798.44,239.79a3.94,3.94,0,0,1-1,.75,12.17,12.17,0,0,1-1.26.61H784.52l0-1.83h9.77a.93.93,0,0,0,.62-.15.86.86,0,0,0,.15-.58,8,8,0,0,0-.16-1.37,5.92,5.92,0,0,0-.6-1.62,3.8,3.8,0,0,0-1.28-1.34,3.87,3.87,0,0,0-2.15-.54,4.46,4.46,0,0,0-2.85,1,6.19,6.19,0,0,0-1.9,2.59,10,10,0,0,0-.67,3.74,10.67,10.67,0,0,0,.73,4,7.23,7.23,0,0,0,2.07,3,4.89,4.89,0,0,0,3.23,1.13,7.61,7.61,0,0,0,1.66-.18,6.66,6.66,0,0,0,1.84-.76,18.34,18.34,0,0,0,2.54-1.83,1.39,1.39,0,0,1,.47.41,2.3,2.3,0,0,1,.28.42,25.15,25.15,0,0,1-3.09,3,7.37,7.37,0,0,1-2.41,1.3,9.43,9.43,0,0,1-2.53.31,6.92,6.92,0,0,1-3.87-1.17,8.4,8.4,0,0,1-2.88-3.28,10.74,10.74,0,0,1-1.09-5,11.83,11.83,0,0,1,1.19-5.2,9.73,9.73,0,0,1,5.49-5,6.75,6.75,0,0,1,2.36-.48,6.51,6.51,0,0,1,3.33.78,6.2,6.2,0,0,1,2.14,2,8.76,8.76,0,0,1,1.14,2.67A11.62,11.62,0,0,1,798.44,239.79Z" transform="translate(-36.23 -26.23)"/><path class="cls-2" d="M831,249.45c-1,.65-1.9,1.2-2.72,1.63a4.48,4.48,0,0,1-1.74.65c-.47,0-.86-.31-1.16-.94a8.77,8.77,0,0,1-.57-3,19.83,19.83,0,0,1-3,2.55,9.13,9.13,0,0,1-2.35,1.15,7.27,7.27,0,0,1-1.91.29,5.54,5.54,0,0,1-2.37-.51,3.86,3.86,0,0,1-1.8-1.87,9,9,0,0,1-.68-3.91v-8.79a9,9,0,0,0-.13-1.86,1,1,0,0,0-.68-.74,9.16,9.16,0,0,0-1.81-.31v-.81a18.38,18.38,0,0,0,2.61-.5,25.35,25.35,0,0,0,2.5-.84l.57.79v12c0,1.89.27,3.2.82,3.9a2.73,2.73,0,0,0,2.29,1.06,5.61,5.61,0,0,0,2.74-.79,14.14,14.14,0,0,0,3.2-2.71v-9.14a6.36,6.36,0,0,0-.19-1.82,1.22,1.22,0,0,0-.8-.81,6.61,6.61,0,0,0-1.86-.28v-.81a18.05,18.05,0,0,0,2.82-.57c.9-.26,1.73-.52,2.47-.77l.61.79V246A16.28,16.28,0,0,0,828,248a1.57,1.57,0,0,0,.36,1,1.26,1.26,0,0,0,.83.07,7.05,7.05,0,0,0,1.63-.54Z" transform="translate(-36.23 -26.23)"/><path class="cls-2" d="M845.57,245.36a6.19,6.19,0,0,1-.84,3.44,5.61,5.61,0,0,1-2.06,1.92,8.11,8.11,0,0,1-2.36.82,11.3,11.3,0,0,1-1.74.19,9.54,9.54,0,0,1-2.34-.36,12.53,12.53,0,0,1-2.75-1.12c-.08-.06-.14-.28-.17-.66a10.29,10.29,0,0,1,0-1.4c0-.54.05-1.07.11-1.6a7.36,7.36,0,0,1,.23-1.23l.88.23a4,4,0,0,0,1.55,2.91,5.34,5.34,0,0,0,3.54,1.2,3.38,3.38,0,0,0,2.4-.89,3,3,0,0,0,.93-2.31,2.53,2.53,0,0,0-.5-1.58,5.92,5.92,0,0,0-1.62-1.33c-.74-.45-1.72-1-2.92-1.61a21.61,21.61,0,0,1-2.14-1.28,6.25,6.25,0,0,1-1.66-1.62,3.73,3.73,0,0,1-.64-2.2,4.62,4.62,0,0,1,.88-2.87,5.53,5.53,0,0,1,2.25-1.8,7,7,0,0,1,2.91-.62,10.35,10.35,0,0,1,1.9.19,12.53,12.53,0,0,1,2,.54,4.57,4.57,0,0,1,1.48.83q.17.15,0,.81a11,11,0,0,1-.5,1.34,4.8,4.8,0,0,1-.49.9L843,236a6.09,6.09,0,0,0-2-2,4.12,4.12,0,0,0-2-.59,2.79,2.79,0,0,0-2.11.8,2.39,2.39,0,0,0-.76,1.64,2.27,2.27,0,0,0,1.1,1.9,30.74,30.74,0,0,0,3.39,2c.79.4,1.57.85,2.33,1.33a7,7,0,0,1,1.91,1.74A4.18,4.18,0,0,1,845.57,245.36Z" transform="translate(-36.23 -26.23)"/><path class="cls-2" d="M860.3,241.19a35.84,35.84,0,0,0-3.64.73,8.38,8.38,0,0,0-2,.77,5.09,5.09,0,0,0-1.12.86,5.41,5.41,0,0,0-.85,1.25,3.87,3.87,0,0,0-.33,1.66,2.92,2.92,0,0,0,.39,1.65,2,2,0,0,0,.93.77,2.46,2.46,0,0,0,.87.21,6.42,6.42,0,0,0,2.69-.67,13.21,13.21,0,0,0,3-2.1l.17,1.5a13.39,13.39,0,0,1-3.81,3,7.77,7.77,0,0,1-3.28.92,4.76,4.76,0,0,1-2-.44,4,4,0,0,1-1.68-1.41,4.38,4.38,0,0,1-.68-2.54,5.57,5.57,0,0,1,.54-2.6,7.39,7.39,0,0,1,1.29-1.78,8.21,8.21,0,0,1,1.63-1.24,11.83,11.83,0,0,1,2.78-1.08,43.53,43.53,0,0,1,5-1Zm6,8.26a23.55,23.55,0,0,1-2.86,1.73,4.39,4.39,0,0,1-1.7.55c-.48,0-.86-.35-1.16-1.07a7.55,7.55,0,0,1-.45-2.88V236.84a3.78,3.78,0,0,0-.71-2.33,3.08,3.08,0,0,0-2.71-.89,4.12,4.12,0,0,0-2.37.78,2.07,2.07,0,0,0-.95,2c0,.16-.2.34-.69.55a10.08,10.08,0,0,1-1.58.5,3.07,3.07,0,0,1-1.19.11l-.28-.8a7.21,7.21,0,0,1,2.08-2.53,12.68,12.68,0,0,1,3.26-1.9,9.42,9.42,0,0,1,3.53-.73,4.77,4.77,0,0,1,3.45,1.17,4.3,4.3,0,0,1,1.21,3.26V247.5c0,1.06.27,1.59.82,1.59a3.4,3.4,0,0,0,.73-.11,13.31,13.31,0,0,0,1.26-.44Z" transform="translate(-36.23 -26.23)"/><path class="cls-2" d="M885.88,241.11a10.38,10.38,0,0,1-.68,3.63,12.1,12.1,0,0,1-2,3.45,10.32,10.32,0,0,1-3.08,2.57,8.43,8.43,0,0,1-4.06,1,9.13,9.13,0,0,1-2.64-.67,29.09,29.09,0,0,1-4.06-1.89V224.75a5.43,5.43,0,0,0-.2-1.73,1.13,1.13,0,0,0-.77-.7,9,9,0,0,0-1.67-.3v-.81c.88-.21,1.73-.42,2.55-.65a12,12,0,0,0,2.39-1,8.29,8.29,0,0,1,.75.69v16.06a16.21,16.21,0,0,1,4-3.6,6.69,6.69,0,0,1,3.09-1.14,5.39,5.39,0,0,1,4.58,2.53A11.9,11.9,0,0,1,885.88,241.11Zm-2.74,1.71a13,13,0,0,0-.72-4.6,6.9,6.9,0,0,0-1.86-2.89,3.72,3.72,0,0,0-2.47-1,5.74,5.74,0,0,0-2.32.92,10.84,10.84,0,0,0-3.32,3.46V247a9.5,9.5,0,0,0,3.28,1.66,10.86,10.86,0,0,0,2.36.44,4.27,4.27,0,0,0,2.78-.92,5.65,5.65,0,0,0,1.7-2.35A8.08,8.08,0,0,0,883.14,242.82Z" transform="translate(-36.23 -26.23)"/><path class="cls-2" d="M888.94,251.12v-.87a11.68,11.68,0,0,0,2.4-.61c.43-.21.65-.42.65-.63V224.75a4.66,4.66,0,0,0-.23-1.72,1.28,1.28,0,0,0-.86-.7,9.51,9.51,0,0,0-1.76-.31v-.81q1.47-.28,2.7-.63a13.76,13.76,0,0,0,2.47-1l.73.69V249q0,.3.69.63a10.67,10.67,0,0,0,2.36.61v.87Z" transform="translate(-36.23 -26.23)"/><path class="cls-2" d="M916.64,239.79a4.14,4.14,0,0,1-1,.75,12.17,12.17,0,0,1-1.26.61H902.71l0-1.83h9.76a.9.9,0,0,0,.62-.15.81.81,0,0,0,.16-.58,7.24,7.24,0,0,0-.17-1.37,5.33,5.33,0,0,0-.6-1.62,3.69,3.69,0,0,0-1.27-1.34,3.88,3.88,0,0,0-2.16-.54,4.45,4.45,0,0,0-2.84,1,6.19,6.19,0,0,0-1.9,2.59,10,10,0,0,0-.67,3.74,10.86,10.86,0,0,0,.72,4,7.35,7.35,0,0,0,2.08,3,4.88,4.88,0,0,0,3.22,1.13,7.47,7.47,0,0,0,1.66-.18,6.7,6.7,0,0,0,1.85-.76,19,19,0,0,0,2.54-1.83,1.39,1.39,0,0,1,.47.41,3,3,0,0,1,.28.42,25.89,25.89,0,0,1-3.09,3,7.47,7.47,0,0,1-2.41,1.3,9.5,9.5,0,0,1-2.54.31,6.92,6.92,0,0,1-3.86-1.17,8.32,8.32,0,0,1-2.88-3.28,10.74,10.74,0,0,1-1.09-5,11.83,11.83,0,0,1,1.19-5.2,9.86,9.86,0,0,1,3.31-3.9,10,10,0,0,1,2.17-1.12,6.84,6.84,0,0,1,2.36-.48,6.55,6.55,0,0,1,3.34.78,6.2,6.2,0,0,1,2.14,2,8.76,8.76,0,0,1,1.14,2.67A11.62,11.62,0,0,1,916.64,239.79Z" transform="translate(-36.23 -26.23)"/></g><g id="Ebene_7" data-name="Ebene 7"><path id="Selection_2" data-name="Selection 2" class="cls-3" d="M1131.71,59.58h-7.07V39.71h7.07Zm-13.41,0h-7.07V39.71h7.07Zm65.61,72h-6.34V111.78h6.34Zm-13.07,0h-6.34V111.78h6.34Zm-13.41-6.35h-6V111.78h6Zm39.13,19.8h-6.34V118.51h6.34ZM1210,125.23v26.1h-6.72V118.77H1210" transform="translate(-36.23 -26.23)"/><path id="Selection_1" data-name="Selection 1" class="cls-4" d="M1144.4,33.14v6.31h-6.34V52.9h13v13h-6.73v6.34h6.73V79h-6.73v6.72H1138v6.73h-26.48V85.72h-6.73V79h-6.34V52.9h6.34V39.48h-6.34V33.14h6.34v6.34h6.35V59.24h-6.35v13h6.73V59.58h6.72V46.17h6.35V59.58h6.72V72.27h6.73v-13h-6.43V39.48h6.43V33.14Zm0,72.3h-.08v6.3h7.07v13.42h6V111.74h7.06V131.5h6.35V111.74h6.72V131.5h6.35v-13h6.34V145h6.35V118.47l6.76,0v32.83l6.72,0V131.54h6.69V145h6.72v32.82h6.35v6.35h13.41v6.72h6.34v6.35h6.73V210.6h-6.73v6.34h-6.34v6.73h-6.73v-6.73h-6.34V210.6h6.34v-6.72h6.73v-6.73h-6.73v-6.34h-13v-6.73H1210v6.73h-6.34v6.34h-46.16v-6.34h20.13v-6.73h-6.72v-13h-6.73V151.29h13.42V145H1184v-6.72h-19.76V145h-6.72v6.34h-6.35V158h-6.72v-6.73h-6.34v-13h-6.73v52.58h-13v-6.72h6.34V125.19h-6.34v6.35h-6.72v-26.1Zm-6.34,32.82h6.34v-13h-6.34Z" transform="translate(-36.23 -26.23)"/><path id="Selection_3" data-name="Selection 3" class="cls-3" d="M1144.4,52.86h-6.34V39.45h6.34Zm-39.55,0h-6.34v13h-6.73v-13h6.73V39.45h6.34ZM1098.54,79h6.35v6.72h6.72v6.73h-6.72V85.72h-6.35V79h-6.72V72.65h6.72Zm13,52.54h6.72v13h-6.72v-13h-6.73v-26.1h6.73Zm66,13.45v6.34h-13.41v19.76h6.72v6.72h-6.72v-6.72h-6.73V151.33h6.73V145Zm-33.17,13.07h6.72v6.34h-6.72v-6.34h-6.34v-6.73h6.34Zm-26.1,19.75h-6.72V151.33h6.72Zm-6.72,13h-13V184.5h13Zm45.85,6.35h-6.34v-6.35h6.34Z" transform="translate(-36.23 -26.23)"/><path id="Selection_4" data-name="Selection 4" class="cls-5" d="M1131.33,98.71h6.73v6.73h-26.48v-13h19.75Z" transform="translate(-36.23 -26.23)"/><path id="Selection" class="cls-6" d="M1144.25,26.42v6.72H1151V52.9h6.35V65.85h13.41V72.2h-13.41v6.72H1164v6.72h-13v6.73h-6.72v6.34H1151v6.73h32.83v6.34h19.75v6.73h6.35v6.72h6.72v6.35h6.73V145h6.72v32.82h13v6.35h6.73v6.72h6.34v6.35h6.72v13.41h-6.68V217h-6.35v6.73h-6.72v6.72h-6.73v-6.72h-6.68V217h-6.38v-6.34h6.72v-6.73h6.34v-6.72h-13v-6.35H1210v6.35h-6.34v6.72H1144.4V184.16h19.76v-6.35h-6.73v-6.72h-13v-6.35h-6.34v32.45h-46.32V177.81h13V138.3h-6.34V98.79h6.34V92.45h-13V85.72h-13V79h6.35V72.27h-13V65.93h13v-13h6.72V33.14h6.73V26.42h6.34v6.72h6.73v6.3h19.75v-6.3h6.73V26.42h6.19ZM1138,33.14v6.31h-6.72v6.76H1111.5V39.48h-6.73V33.14h-6.34V52.9h-6.72v13h6.72v6.72h-6.72V79h6.72v6.72h6.34v6.73h6.73v13h-6.73v26.1h6.73v13h6.72V125.23h6.35v58.93h-6.35v6.72h13V138.3H1138v-13h6.34v13H1138v19.76h6.34v6.34h6.73v-13h6.34V145h6.73V138.3h19.75V145h-19.75v6.34h-6.73v19.76h6.73v6.72h6.72v6.35h6.73v6.72h-26.48v6.34h52.58v-6.34H1210V184.2h13.41v6.72h13v6.34h6.73V204h-6.73v6.72h-6.34v6.35h6.34v6.72h6.73v-6.72h6.34v-6.35h6.73V197.3h-6.73V191h-6.34v-6.73h-13.41v-6.34h-6.31V145.06h-6.72V131.65H1210v-6.34h-6.34v-6.73h-19.76v-6.72H1144.4v-6.35h-6.34V98.79h-6.73V92.45h6.73V85.72h6.34V79h6.72V72.27h-6.72V65.93h6.72v-13h-6.72V33.14H1138Zm.08,39.13h-6.73v-13h6.73Zm-26.48,0h-6.73v-13h6.73Zm0,105.54h6.72V151.33h-6.72Zm-13,13h13V184.5h-13Z" transform="translate(-36.23 -26.23)"/></g></svg>